<svg xmlns="http://www.w3.org/2000/svg" version="1.1" xmlns:xlink="http://www.w3.org/1999/xlink" xmlns:svgjs="http://svgjs.com/svgjs" width="1920" height="1080" preserveAspectRatio="none" viewBox="0 0 1920 1080"><g mask="url(&quot;#SvgjsMask1028&quot;)" fill="none"><path d="M1190.692,537.018C1228.939,537.307,1262.324,514.657,1282.705,482.292C1304.726,447.322,1317.425,403.711,1297.406,367.557C1276.904,330.531,1232.938,313.563,1190.692,316.12C1152.514,318.431,1122.504,345.649,1104.229,379.249C1086.865,411.173,1083.59,449.051,1101.055,480.92C1119.211,514.049,1152.915,536.733,1190.692,537.018" fill="rgba(28, 83, 142, 0.4)" class="triangle-float1"></path><path d="M1321.51,1037.389C1380.773,1040.263,1435.244,1005.571,1465.41,954.479C1496.105,902.489,1504.692,835.104,1470.196,785.554C1438.881,740.573,1376.316,747.299,1321.51,747.78C1268.004,748.25,1205.712,742.799,1177.276,788.125C1147.82,835.076,1172.153,893.629,1199.912,941.603C1227.609,989.469,1266.273,1034.71,1321.51,1037.389" fill="rgba(28, 83, 142, 0.4)" class="triangle-float3"></path><path d="M784.23,671.689C894.073,675.948,1023.471,672.914,1076.941,576.869C1129.717,482.071,1054.373,377.186,1000.673,282.908C946.109,187.113,894.108,71.956,784.23,62.968C663.577,53.099,552.132,134.225,496.333,241.654C444.365,341.707,465.636,461.913,528.357,555.6C584.202,639.015,683.922,667.8,784.23,671.689" fill="rgba(28, 83, 142, 0.4)" class="triangle-float3"></path><path d="M556.268,587.301C626.112,586.231,690.018,547.144,723.351,485.758C755.264,426.989,745.163,357.438,712.894,298.864C679.254,237.801,625.981,183.162,556.268,182.472C485.63,181.773,429.207,234.365,394.177,295.709C359.485,356.46,346.084,429.871,380.074,491.018C414.927,553.716,484.542,588.4,556.268,587.301" fill="rgba(28, 83, 142, 0.4)" class="triangle-float3"></path><path d="M190.548,1134.537C272.426,1128.389,317.414,1047.353,355.707,974.721C390.52,908.691,421.356,832.302,383.953,767.704C346.605,703.201,265.053,687.349,190.548,689.479C120.423,691.483,54.987,720.329,15.389,778.239C-30.672,845.601,-59.992,929.997,-23.99,1003.23C15.655,1083.875,100.937,1141.265,190.548,1134.537" fill="rgba(28, 83, 142, 0.4)" class="triangle-float2"></path><path d="M1598.121,1237.546C1688.286,1242.554,1777.178,1191.834,1816.722,1110.648C1852.72,1036.741,1815.613,953.563,1769.637,885.414C1730.088,826.792,1668.836,786.805,1598.121,786.622C1527.086,786.439,1461.48,823.533,1425.065,884.524C1387.686,947.131,1385.792,1023.023,1417.888,1088.496C1454.667,1163.523,1514.693,1232.912,1598.121,1237.546" fill="rgba(28, 83, 142, 0.4)" class="triangle-float3"></path><path d="M1782.274,530.651C1841.319,528.319,1880.586,478.215,1912.189,428.285C1947.21,372.956,1990.267,308.772,1959.197,251.132C1927.311,191.978,1849.473,186.988,1782.274,187.27C1715.748,187.549,1641.755,195.336,1607.9,252.604C1573.644,310.55,1597.517,382.273,1633.281,439.3C1666.455,492.197,1719.884,533.115,1782.274,530.651" fill="rgba(28, 83, 142, 0.4)" class="triangle-float3"></path></g><defs><mask id="SvgjsMask1028"><rect width="1920" height="1080" fill="#ffffff"></rect></mask><style>
            @keyframes float1 {
                0%{transform: translate(0, 0)}
                50%{transform: translate(-10px, 0)}
                100%{transform: translate(0, 0)}
            }

            .triangle-float1 {
                animation: float1 5s infinite;
            }

            @keyframes float2 {
                0%{transform: translate(0, 0)}
                50%{transform: translate(-5px, -5px)}
                100%{transform: translate(0, 0)}
            }

            .triangle-float2 {
                animation: float2 4s infinite;
            }

            @keyframes float3 {
                0%{transform: translate(0, 0)}
                50%{transform: translate(0, -10px)}
                100%{transform: translate(0, 0)}
            }

            .triangle-float3 {
                animation: float3 6s infinite;
            }
        </style></defs></svg>