<svg xmlns="http://www.w3.org/2000/svg" version="1.1" xmlns:xlink="http://www.w3.org/1999/xlink" xmlns:svgjs="http://svgjs.com/svgjs" width="1920" height="1080" preserveAspectRatio="none" viewBox="0 0 1920 1080"><g mask="url(&quot;#SvgjsMask1081&quot;)" fill="none"><path d="M272.322,595.226C386.624,593.53,493.029,531.672,546.815,430.801C597.78,335.22,573.967,223.234,521.078,128.703C466.632,31.389,383.83,-60.246,272.322,-59.815C161.336,-59.386,82.494,34.568,26.872,130.611C-28.92,226.948,-68.656,340.729,-16.654,439.163C38.155,542.91,155,596.967,272.322,595.226" fill="rgba(99, 102, 241, 0.49)" class="triangle-float3"></path><path d="M69.723,197.471C114.905,197.288,155.087,171.177,178.1,132.295C201.583,92.619,209.919,41.928,184.582,3.41C160.957,-32.505,112.681,-34.096,69.723,-32.461C30.495,-30.968,-9.225,-21.099,-30.93,11.611C-55.014,47.906,-60.931,94.878,-40.188,133.181C-18.524,173.184,24.231,197.656,69.723,197.471" fill="rgba(99, 102, 241, 0.49)" class="triangle-float1"></path><path d="M73.739,194.222C119.033,195.624,164.051,178.159,188.368,139.92C214.486,98.85,221.59,44.479,194.808,3.839C169.87,-34.003,119.058,-33.79,73.739,-34.021C27.812,-34.255,-25.408,-36.516,-49.491,2.592C-74.248,42.796,-54.766,93.474,-29.228,133.187C-6.098,169.156,30.995,192.899,73.739,194.222" fill="rgba(99, 102, 241, 0.49)" class="triangle-float2"></path><path d="M1959.266,551.482C2057.511,545.873,2124.38,464.218,2174.391,379.469C2225.548,292.779,2269.978,191.94,2224.395,102.194C2175.406,5.742,2067.445,-43.651,1959.266,-44.077C1850.304,-44.506,1745.306,5.917,1690.5,100.094C1635.387,194.8,1640.863,312.581,1696.922,406.73C1751.687,498.707,1852.393,557.584,1959.266,551.482" fill="rgba(99, 102, 241, 0.49)" class="triangle-float1"></path><path d="M1892.622,410.512C1966.664,406.985,2018.083,346.632,2056.463,283.216C2096.783,216.595,2134,139.03,2099.038,69.448C2061.345,-5.57,1976.43,-47.828,1892.622,-42.866C1815.868,-38.322,1762.344,24.629,1724.602,91.616C1687.75,157.024,1664.323,233.806,1699.318,300.226C1736.381,370.569,1813.202,414.295,1892.622,410.512" fill="rgba(99, 102, 241, 0.49)" class="triangle-float2"></path><path d="M1876.232,403.499C1954.01,403.585,2015.667,342.371,2050.274,272.716C2081.102,210.666,2070.757,139.911,2037.35,79.211C2002.461,15.818,1948.401,-38.262,1876.232,-43.518C1794.742,-49.453,1707.917,-19.268,1668.6,52.356C1630.326,122.08,1662.369,203.869,1702.852,272.334C1742.385,339.191,1798.561,403.414,1876.232,403.499" fill="rgba(99, 102, 241, 0.49)" class="triangle-float1"></path><path d="M198.193,1256.855C282.082,1263.475,378.243,1263.109,424.943,1193.107C475.173,1117.815,459.646,1015.536,409.413,940.246C364.119,872.358,279.803,852.809,198.193,853.25C117.558,853.685,30.204,872.104,-9.113,942.505C-47.77,1011.723,-17.673,1095.439,25.974,1161.624C64.681,1220.318,128.103,1251.324,198.193,1256.855" fill="rgba(99, 102, 241, 0.49)" class="triangle-float3"></path><path d="M139.525,1193.505C202.745,1190.989,247.325,1138.818,278.535,1083.782C309.205,1029.698,328.488,966.156,299.704,911.045C269.035,852.325,205.772,817.474,139.525,817.631C73.544,817.787,13.5,854.576,-19.347,911.8C-52.048,968.771,-52.335,1038.448,-20.067,1095.665C12.786,1153.919,72.699,1196.164,139.525,1193.505" fill="rgba(99, 102, 241, 0.49)" class="triangle-float3"></path><path d="M198.227,1258.192C275.459,1255.101,358.063,1243.693,399.288,1178.31C442.8,1109.299,433.685,1020.489,392.511,950.058C351.741,880.319,278.96,831.571,198.227,834.386C121.536,837.06,67.42,898.187,26.075,962.835C-20.14,1035.098,-75.977,1121.493,-32.782,1195.601C10.277,1269.476,112.787,1261.611,198.227,1258.192" fill="rgba(99, 102, 241, 0.49)" class="triangle-float2"></path><path d="M1990.881,1443.787C2091.287,1439.35,2169.342,1369.874,2223.044,1284.92C2281.87,1191.861,2334.542,1079.533,2282.448,982.545C2228.491,882.087,2104.887,850.25,1990.881,852.677C1881.681,855.002,1775.938,900.673,1720.051,994.517C1662.903,1090.478,1662.573,1211.486,1720.235,1307.139C1776.157,1399.905,1882.669,1448.569,1990.881,1443.787" fill="rgba(99, 102, 241, 0.49)" class="triangle-float3"></path><path d="M1921.073,1326.871C2004.529,1320.866,2072.449,1265.042,2112.086,1191.354C2149.49,1121.819,2147.789,1041.156,2112.849,970.351C2072.741,889.073,2011.648,807.559,1921.073,804.274C1826.496,800.844,1751.461,873.87,1703.588,955.508C1655.027,1038.318,1627.159,1139.917,1675.672,1222.755C1723.801,1304.937,1826.081,1333.706,1921.073,1326.871" fill="rgba(99, 102, 241, 0.49)" class="triangle-float2"></path><path d="M1912.963,1280.664C1985.919,1274.144,2047.263,1234.885,2088.102,1174.08C2135.622,1103.327,2176.974,1018.593,2140.815,941.413C2100.189,854.699,2008.721,800.775,1912.963,800.256C1816.349,799.732,1729.414,855.431,1680.791,938.919C1631.834,1022.981,1619.015,1130.647,1673.681,1211.113C1723.709,1284.752,1824.291,1288.588,1912.963,1280.664" fill="rgba(99, 102, 241, 0.49)" class="triangle-float3"></path></g><defs><mask id="SvgjsMask1081"><rect width="1920" height="1080" fill="#ffffff"></rect></mask><style>
            @keyframes float1 {
                0%{transform: translate(0, 0)}
                50%{transform: translate(-10px, 0)}
                100%{transform: translate(0, 0)}
            }

            .triangle-float1 {
                animation: float1 5s infinite;
            }

            @keyframes float2 {
                0%{transform: translate(0, 0)}
                50%{transform: translate(-5px, -5px)}
                100%{transform: translate(0, 0)}
            }

            .triangle-float2 {
                animation: float2 4s infinite;
            }

            @keyframes float3 {
                0%{transform: translate(0, 0)}
                50%{transform: translate(0, -10px)}
                100%{transform: translate(0, 0)}
            }

            .triangle-float3 {
                animation: float3 6s infinite;
            }
        </style></defs></svg>