<?xml version="1.0" encoding="iso-8859-1"?>
<!-- Uploaded to: SVG Repo, www.svgrepo.com, Transformed by: SVG Repo Mixer Tools -->
<svg height="800px" width="800px" version="1.1" id="Layer_1" xmlns="http://www.w3.org/2000/svg" xmlns:xlink="http://www.w3.org/1999/xlink" 
	 viewBox="0 0 413.82 413.82" xml:space="preserve">
<g>
	<path style="fill:#3E81C8;" d="M128.458,413.82h-16v-24.75c0-18.334,14.916-33.25,33.25-33.25h44.51
		c9.506,0,17.24-7.734,17.24-17.24v-3.51c0-9.512-7.734-17.25-17.24-17.25h-29.51c-18.334,0-33.25-14.911-33.25-33.24v-0.51
		c0-18.334,14.916-33.25,33.25-33.25h35.51c9.506,0,17.24-7.734,17.24-17.24v-49.76h16v49.76c0,18.329-14.911,33.24-33.24,33.24
		h-35.51c-9.512,0-17.25,7.738-17.25,17.25v0.51c0,9.506,7.738,17.24,17.25,17.24h29.51c18.329,0,33.24,14.916,33.24,33.25v3.51
		c0,18.329-14.911,33.24-33.24,33.24h-44.51c-9.511,0-17.25,7.738-17.25,17.25V413.82z"/>
	<polygon style="fill:#3E81C8;" points="251.538,15.03 210.458,191.82 387.248,150.74 387.258,150.74 387.258,15.03 	"/>
	<polygon style="fill:#37495E;" points="319.398,82.89 251.538,15.03 210.458,191.82 387.248,150.74 	"/>
	<polygon style="fill:#F8A805;" points="387.248,150.74 210.458,191.82 319.398,82.89 	"/>
	<path style="fill:#EFEFEF;" d="M127.46,148.82c0,1.01-0.05,2.01-0.14,3H13.21c-2.4-4.82-3.75-10.25-3.75-16c0-19.88,16.12-36,36-36
		c14.84,0,27.59,8.99,33.1,21.82c4.9-3.06,10.7-4.82,16.9-4.82C113.13,116.82,127.46,131.15,127.46,148.82z"/>
	<path style="fill:#EFEFEF;" d="M213.36,49c0,1.01-0.05,2.01-0.14,3H99.11c-2.4-4.82-3.75-10.25-3.75-16c0-19.88,16.12-36,36-36
		c14.84,0,27.59,8.99,33.1,21.82c4.9-3.06,10.7-4.82,16.9-4.82C199.03,17,213.36,31.33,213.36,49z"/>
	<path style="fill:#EFEFEF;" d="M404.36,303c0,1.01-0.05,2.01-0.14,3H290.11c-2.4-4.82-3.75-10.25-3.75-16c0-19.88,16.12-36,36-36
		c14.84,0,27.59,8.99,33.1,21.82c4.9-3.06,10.7-4.82,16.9-4.82C390.03,271,404.36,285.33,404.36,303z"/>
</g>
</svg>